<svg xmlns="http://www.w3.org/2000/svg" width="142" height="142" viewBox="0 0 142 142">
  <g id="Group_17" data-name="Group 17" transform="translate(-889 -701)">
    <circle id="Ellipse_1" data-name="Ellipse 1" cx="71" cy="71" r="71" transform="translate(889 701)"/>
    <path id="Icon_awesome-angle-right" data-name="Icon awesome-angle-right" d="M34.513,30.622,10.991,54.144a4.134,4.134,0,0,1-5.863,0L1.219,50.235a4.134,4.134,0,0,1,0-5.863L17.892,27.7,1.219,11.026a4.134,4.134,0,0,1,0-5.863L5.111,1.219a4.134,4.134,0,0,1,5.863,0L34.5,24.741a4.139,4.139,0,0,1,.017,5.881Z" transform="translate(987.994 753.744) rotate(90)" fill="#fff"/>
  </g>
</svg>
