<svg xmlns="http://www.w3.org/2000/svg" width="532.077" height="48" viewBox="0 0 532.077 48">
  <path id="Path_82" data-name="Path 82" d="M-4286.659-1945.6a22.966,22.966,0,0,1-9-8.6,23.627,23.627,0,0,1-3.268-12.3,23.631,23.631,0,0,1,3.268-12.3,22.961,22.961,0,0,1,9-8.6,26.61,26.61,0,0,1,12.867-3.1,26.618,26.618,0,0,1,12.867,3.1,23.039,23.039,0,0,1,9,8.567,23.575,23.575,0,0,1,3.266,12.333,23.581,23.581,0,0,1-3.266,12.334,23.051,23.051,0,0,1-9,8.567,26.634,26.634,0,0,1-12.867,3.1A26.626,26.626,0,0,1-4286.659-1945.6Zm4.466-35.2a15.182,15.182,0,0,0-5.867,5.867,16.805,16.805,0,0,0-2.132,8.433,16.812,16.812,0,0,0,2.132,8.434,15.2,15.2,0,0,0,5.867,5.867,16.845,16.845,0,0,0,8.4,2.1,16.848,16.848,0,0,0,8.4-2.1,15.194,15.194,0,0,0,5.865-5.867,16.808,16.808,0,0,0,2.134-8.434,16.8,16.8,0,0,0-2.134-8.433,15.172,15.172,0,0,0-5.865-5.867,16.83,16.83,0,0,0-8.4-2.1A16.828,16.828,0,0,0-4282.193-1980.8Zm-277.571,36.768a21.765,21.765,0,0,1-7.966-4.068l3-6.733a23.607,23.607,0,0,0,7.033,3.7,25.582,25.582,0,0,0,8.367,1.434q5.2,0,7.767-1.667a5.049,5.049,0,0,0,2.567-4.4,4.258,4.258,0,0,0-1.434-3.3,10.06,10.06,0,0,0-3.633-2.032q-2.2-.734-6-1.668a70.126,70.126,0,0,1-8.634-2.533,14.2,14.2,0,0,1-5.665-3.966,10.691,10.691,0,0,1-2.367-7.3,12.457,12.457,0,0,1,2.1-7.033,14.21,14.21,0,0,1,6.335-5.034,25.66,25.66,0,0,1,10.366-1.866,33.473,33.473,0,0,1,8.4,1.066,23.217,23.217,0,0,1,7.134,3.067l-2.733,6.733a27.034,27.034,0,0,0-6.4-2.733,23.962,23.962,0,0,0-6.468-.933q-5.132,0-7.633,1.732a5.348,5.348,0,0,0-2.5,4.6,4.16,4.16,0,0,0,1.433,3.267,10.37,10.37,0,0,0,3.634,2q2.2.734,6,1.667a63.289,63.289,0,0,1,8.535,2.5,14.624,14.624,0,0,1,5.7,3.968,10.454,10.454,0,0,1,2.366,7.2,12.293,12.293,0,0,1-2.1,7,14.282,14.282,0,0,1-6.366,5,25.9,25.9,0,0,1-10.4,1.866A35.6,35.6,0,0,1-4559.765-1944.032Zm-51.768-1.566a22.966,22.966,0,0,1-9-8.6,23.625,23.625,0,0,1-3.266-12.3,23.63,23.63,0,0,1,3.266-12.3,22.961,22.961,0,0,1,9-8.6,26.614,26.614,0,0,1,12.868-3.1,26.612,26.612,0,0,1,12.866,3.1,23.04,23.04,0,0,1,9,8.567,23.575,23.575,0,0,1,3.266,12.333,23.581,23.581,0,0,1-3.266,12.334,23.052,23.052,0,0,1-9,8.567,26.628,26.628,0,0,1-12.866,3.1A26.629,26.629,0,0,1-4611.532-1945.6Zm4.468-35.2a15.165,15.165,0,0,0-5.868,5.867,16.811,16.811,0,0,0-2.133,8.433,16.817,16.817,0,0,0,2.133,8.434,15.187,15.187,0,0,0,5.868,5.867,16.842,16.842,0,0,0,8.4,2.1,16.845,16.845,0,0,0,8.4-2.1,15.2,15.2,0,0,0,5.867-5.867,16.813,16.813,0,0,0,2.134-8.434,16.806,16.806,0,0,0-2.134-8.433,15.182,15.182,0,0,0-5.867-5.867,16.827,16.827,0,0,0-8.4-2.1A16.825,16.825,0,0,0-4607.064-1980.8Zm-52.568,35.2a22.869,22.869,0,0,1-8.935-8.567,23.78,23.78,0,0,1-3.233-12.334,23.577,23.577,0,0,1,3.268-12.333,23.1,23.1,0,0,1,8.965-8.567,26.287,26.287,0,0,1,12.768-3.1,26.623,26.623,0,0,1,10.466,2,21.353,21.353,0,0,1,8,5.8l-5.6,5.267a16.333,16.333,0,0,0-12.468-5.465,17.468,17.468,0,0,0-8.6,2.1,15.121,15.121,0,0,0-5.934,5.833,16.754,16.754,0,0,0-2.133,8.467,16.75,16.75,0,0,0,2.133,8.467A15.137,15.137,0,0,0-4655-1952.2a17.486,17.486,0,0,0,8.6,2.1,16.243,16.243,0,0,0,12.468-5.534l5.6,5.334a21.281,21.281,0,0,1-8.034,5.8,26.877,26.877,0,0,1-10.5,2A26.292,26.292,0,0,1-4659.632-1945.6Zm207.268-3.932a23.842,23.842,0,0,1-7.032-16.97,23.843,23.843,0,0,1,7.032-16.971,23.833,23.833,0,0,1,16.968-7.029,23.956,23.956,0,0,1,9.156,1.8,9.289,9.289,0,0,1,5.511-1.8,9.333,9.333,0,0,1,9.334,9.331,9.3,9.3,0,0,1-1.8,5.514,23.984,23.984,0,0,1,1.8,9.155,23.848,23.848,0,0,1-7.029,16.97,23.845,23.845,0,0,1-16.972,7.029A23.839,23.839,0,0,1-4452.364-1949.53Zm.969-16.97a16.019,16.019,0,0,0,16,16,16.018,16.018,0,0,0,16-16,15.936,15.936,0,0,0-.918-5.344c-.138.006-.277.01-.416.01a9.333,9.333,0,0,1-9.332-9.335c0-.137,0-.277.009-.414a15.923,15.923,0,0,0-5.345-.918A16.019,16.019,0,0,0-4451.4-1966.5Zm276.671,23.334v-46.668h34.068v7.268h-25.4v12.133h22.534v7.133h-22.534v12.868h26.334v7.266Zm-21.333,0-.067-30.933-15.333,25.6h-3.867l-15.333-25.2v30.533h-8.267v-46.668h7.134l18.533,30.935,18.2-30.935h7.134l.067,46.668Zm-118.269,0-9.534-13.667a18,18,0,0,1-1.8.066h-10.532v13.6h-8.667v-46.668h19.2a25.839,25.839,0,0,1,10.568,2,15.365,15.365,0,0,1,6.9,5.733,16.033,16.033,0,0,1,2.4,8.867,15.824,15.824,0,0,1-2.567,9.067,15.275,15.275,0,0,1-7.366,5.667l10.732,15.333Zm-21.866-20.735h10.134q5.665,0,8.6-2.432a8.461,8.461,0,0,0,2.934-6.9,8.361,8.361,0,0,0-2.934-6.866q-2.933-2.4-8.6-2.4h-10.134Zm-64.269,20.735v-46.668h20.4a29.277,29.277,0,0,1,13.268,2.9,21.469,21.469,0,0,1,9,8.2,23.215,23.215,0,0,1,3.2,12.233,23.221,23.221,0,0,1-3.2,12.235,21.48,21.48,0,0,1-9,8.2,29.277,29.277,0,0,1-13.268,2.9Zm8.667-7.334h11.333a19.808,19.808,0,0,0,9.034-1.967,14.077,14.077,0,0,0,6-5.6,16.563,16.563,0,0,0,2.1-8.434,16.552,16.552,0,0,0-2.1-8.433,14.072,14.072,0,0,0-6-5.6,19.827,19.827,0,0,0-9.034-1.967h-11.333Zm-86.669,7.334-.067-30.933-15.333,25.6h-3.866l-15.334-25.2v30.533h-8.267v-46.668h7.133l18.533,30.935,18.2-30.935h7.131l.067,46.668Z" transform="translate(4671.8 1990.5)" fill="#fff"/>
</svg>
