<svg xmlns="http://www.w3.org/2000/svg" width="96" height="96" viewBox="0 0 96 96">
  <g id="Group_323" data-name="Group 323" transform="translate(-889 -701.051)">
    <circle id="Ellipse_1" data-name="Ellipse 1" cx="48" cy="48" r="48" transform="translate(889 701.051)" fill="#5a2017"/>
    <path id="Icon_awesome-angle-right" data-name="Icon awesome-angle-right" d="M23.345,20.713,7.435,36.624a2.8,2.8,0,0,1-3.966,0L.825,33.98a2.8,2.8,0,0,1,0-3.966L12.1,18.736.825,7.458a2.8,2.8,0,0,1,0-3.966L3.457.825a2.8,2.8,0,0,1,3.966,0L23.334,16.735a2.8,2.8,0,0,1,.012,3.978Z" transform="translate(955.961 736.678) rotate(90)" fill="#fff"/>
  </g>
</svg>
