<svg xmlns="http://www.w3.org/2000/svg" width="24" height="23.999" viewBox="0 0 24 23.999">
  <path id="Path_81" data-name="Path 81" d="M-4670.485-1982.515A11.922,11.922,0,0,1-4674-1991a11.923,11.923,0,0,1,3.516-8.485A11.919,11.919,0,0,1-4662-2003a11.983,11.983,0,0,1,4.578.9,4.644,4.644,0,0,1,2.756-.9,4.667,4.667,0,0,1,4.667,4.666,4.646,4.646,0,0,1-.9,2.757,11.979,11.979,0,0,1,.9,4.577,11.921,11.921,0,0,1-3.515,8.485A11.92,11.92,0,0,1-4662-1979,11.919,11.919,0,0,1-4670.485-1982.515ZM-4670-1991a8.009,8.009,0,0,0,8,8,8.009,8.009,0,0,0,8-8,7.964,7.964,0,0,0-.458-2.671q-.1,0-.208,0a4.666,4.666,0,0,1-4.666-4.667c0-.069,0-.138,0-.207A7.967,7.967,0,0,0-4662-1999,8.009,8.009,0,0,0-4670-1991Z" transform="translate(4674.001 2003)" fill="#fff"/>
</svg>
