<svg xmlns="http://www.w3.org/2000/svg" width="96" height="95.996" viewBox="0 0 96 95.996">
  <g id="Group_296" data-name="Group 296" transform="translate(-163.999 -420)">
    <path id="Path_81" data-name="Path 81" d="M-4659.939-1921.061A47.692,47.692,0,0,1-4674-1955a47.692,47.692,0,0,1,14.062-33.941A47.677,47.677,0,0,1-4626-2003a47.948,47.948,0,0,1,18.313,3.6,18.571,18.571,0,0,1,11.021-3.6A18.666,18.666,0,0,1-4578-1984.336a18.58,18.58,0,0,1-3.6,11.026A47.943,47.943,0,0,1-4578-1955a47.691,47.691,0,0,1-14.057,33.941A47.688,47.688,0,0,1-4626-1907,47.679,47.679,0,0,1-4659.939-1921.061ZM-4658-1955a32.036,32.036,0,0,0,32,32,32.033,32.033,0,0,0,32-32,31.849,31.849,0,0,0-1.833-10.685q-.415.018-.832.019a18.664,18.664,0,0,1-18.664-18.667c0-.278.007-.554.019-.829A31.838,31.838,0,0,0-4626-1987,32.036,32.036,0,0,0-4658-1955Z" transform="translate(4838 2423)" fill="red"/>
  </g>
</svg>
